<svg id="Layer_1" data-name="Layer 1" xmlns="http://www.w3.org/2000/svg" viewBox="0 0 273.891 97.125">
  <defs>
    <style>
      .cls-1 {
        fill: #161615;
      }

      .cls-2 {
        fill: #fff;
      }
    </style>
  </defs>
  <title>Logo no background</title>
  <g>
    <path class="cls-1" d="M122.715,141.73h-8.983L91.6,105.338h8.657l17.966,30.237,17.966-30.237h8.657Z" transform="translate(-62.458 -83.833)"/>
    <path class="cls-1" d="M153.108,141.73V105.338h7.811V141.73Z" transform="translate(-62.458 -83.833)"/>
    <path class="cls-1" d="M200.3,141.73h-8.983l-22.132-36.392h8.657l17.966,30.237,17.966-30.237h8.657Z" transform="translate(-62.458 -83.833)"/>
    <path class="cls-1" d="M268.836,141.73l-10.479-13.373H238.5V141.73h-7.812V105.338h32.352c8.527,0,13.93,4.556,13.93,11.539,0,5.858-3.449,9.764-9.959,11.065L277.82,141.73ZM268.967,117c0-3.61-2.408-5.208-7.551-5.208H238.5v10.119h23.368C266.559,121.907,268.967,120.191,268.967,117Z" transform="translate(-62.458 -83.833)"/>
    <path class="cls-1" d="M290.508,141.73V105.338H332.1v6.45H298.32V119.6h23.5v6.45h-23.5v9.231H333.6v6.45Zm20.179-39.587h-3.971l4.492-9.823h7.551Z" transform="translate(-62.458 -83.833)"/>
  </g>
  <rect class="cls-1" x="28.475" y="67.167" width="243.333" height="12.333"/>
  <g id="skin_and_beauty" data-name="skin and beauty">
    <path class="cls-2" d="M161.713,154.905c-1.387,0-2.117.352-2.117.906,0,.3.194.509.583.647a22.119,22.119,0,0,0,3.19.351c1.665.213,2.46.786,2.46,1.905,0,1.405-1.276,2.229-3.653,2.229a6.23,6.23,0,0,1-3.985-1.128l.61-.8a6.269,6.269,0,0,0,3.384.962c1.59,0,2.441-.463,2.441-1.184,0-.953-1.138-.953-3.107-1.082-2.062-.139-3.1-.463-3.1-1.748,0-1.248,1.2-2.034,3.375-2.034a6.336,6.336,0,0,1,3.625.989l-.675.749A6.53,6.53,0,0,0,161.713,154.905Z" transform="translate(-62.458 -83.833)"/>
    <path class="cls-2" d="M174.835,160.786l-3.218-3.523-2.016,1.489v2.034h-1.11v-6.694h1.11v3.467l4.688-3.467h1.6l-3.421,2.533,3.791,4.161Z" transform="translate(-62.458 -83.833)"/>
    <path class="cls-2" d="M178.3,160.786v-6.694h1.11v6.694Z" transform="translate(-62.458 -83.833)"/>
    <path class="cls-2" d="M188.724,160.786l-5.123-5.492v5.492h-1.11v-6.694h1.378l5.114,5.492v-5.492h1.109v6.694Z" transform="translate(-62.458 -83.833)"/>
    <path class="cls-2" d="M201.55,160.148a4.647,4.647,0,0,1-2.635.758c-1.637,0-2.7-.888-2.7-2.007,0-.961.786-1.646,2.331-2.016a2.023,2.023,0,0,1-.342-1.109,1.669,1.669,0,0,1,.361-1.026,2.046,2.046,0,0,1,1.627-.776A1.668,1.668,0,0,1,202,155.654c0,.842-.6,1.5-1.738,1.831a9.585,9.585,0,0,0,1.341,1.4,3.367,3.367,0,0,0,.961-1.59H203.7a5.264,5.264,0,0,1-1.294,2.164,3.841,3.841,0,0,0,1.572.332v1.026A5.822,5.822,0,0,1,201.55,160.148Zm-2.376-2.414c-1.229.194-1.84.6-1.84,1.2,0,.583.629,1.008,1.692,1.008a4.082,4.082,0,0,0,1.739-.462A12.438,12.438,0,0,1,199.173,157.734Zm1.748-2.108a.732.732,0,0,0-.768-.712.82.82,0,0,0-.86.86,1.764,1.764,0,0,0,.342.906C200.487,156.579,200.921,156.218,200.921,155.626Z" transform="translate(-62.458 -83.833)"/>
    <path class="cls-2" d="M218.157,159.029c0,1.146-.859,1.757-2.533,1.757h-5.335v-6.694h5.41c1.378,0,2.182.73,2.182,1.83a1.51,1.51,0,0,1-.869,1.415A1.623,1.623,0,0,1,218.157,159.029Zm-1.359-3.042c0-.536-.4-.888-1.036-.888H211.4v1.794h4.318A.993.993,0,0,0,216.8,155.987Zm.222,2.885c0-.666-.388-.971-1.211-.971H211.4v1.877h4.235C216.577,159.778,217.02,159.51,217.02,158.872Z" transform="translate(-62.458 -83.833)"/>
    <path class="cls-2" d="M220.987,160.786v-6.694h6.75V155.1H222.1v1.71h3.921v1.009H222.1v1.96H228v1.008Z" transform="translate(-62.458 -83.833)"/>
    <path class="cls-2" d="M237.095,160.786l-.776-1.5h-4.5l-.777,1.5h-1.211l3.542-6.694h1.4l3.542,6.694Zm-3.023-5.742-1.711,3.236h3.412Z" transform="translate(-62.458 -83.833)"/>
    <path class="cls-2" d="M244.013,160.989c-2.349,0-3.8-1.008-3.8-2.367v-4.53h1.11v4.263c0,1.035.925,1.618,2.69,1.618s2.672-.583,2.672-1.618v-4.263h1.11v4.53C247.795,159.991,246.352,160.989,244.013,160.989Z" transform="translate(-62.458 -83.833)"/>
    <path class="cls-2" d="M254.147,155.1v5.687h-1.109V155.1h-3.2v-1.008h7.509V155.1Z" transform="translate(-62.458 -83.833)"/>
    <path class="cls-2" d="M263.348,158.142v2.645h-1.109v-2.645l-3.662-4.05h1.378l2.849,3.125,2.829-3.125h1.378Z" transform="translate(-62.458 -83.833)"/>
  </g>
</svg>
